<svg width="133" height="45" viewBox="0 0 133 45" fill="none" xmlns="http://www.w3.org/2000/svg">
<g clip-path="url(#clip0_15_2)">
<rect width="133" height="45" rx="4" fill="#2DD4BF" fill-opacity="0.75"/>
<path d="M9.15491 28H5.18291V13.936H6.76691C7.19091 13.936 7.83091 13.92 8.68691 13.888C9.54291 13.848 10.2469 13.828 10.7989 13.828C12.3509 13.828 13.5269 14.24 14.3269 15.064C15.1269 15.888 15.5269 17.124 15.5269 18.772C15.5269 19.764 15.3949 20.668 15.1309 21.484C14.8749 22.292 14.5269 22.956 14.0869 23.476C13.6469 23.996 13.1469 24.396 12.5869 24.676C12.0269 24.956 11.4349 25.096 10.8109 25.096C10.7309 25.096 10.6469 25.096 10.5589 25.096C10.4789 25.096 10.4029 25.096 10.3309 25.096C10.2669 25.088 10.1869 25.084 10.0909 25.084C10.0029 25.076 9.93091 25.072 9.87491 25.072C9.82691 25.064 9.75491 25.06 9.65891 25.06C9.57091 25.052 9.51091 25.048 9.47891 25.048C9.44691 25.048 9.38691 25.044 9.29891 25.036C9.21091 25.028 9.16291 25.024 9.15491 25.024V28ZM11.5909 18.244C11.5909 17.652 11.4309 17.172 11.1109 16.804C10.7909 16.436 10.3309 16.252 9.73091 16.252H9.15491V22.492H9.59891C10.2309 22.492 10.7189 22.28 11.0629 21.856C11.4149 21.432 11.5909 20.82 11.5909 20.02V18.244ZM21.7489 26.932L21.6289 27.064C21.5489 27.16 21.4249 27.272 21.2569 27.4C21.0969 27.528 20.9089 27.656 20.6929 27.784C20.4849 27.912 20.2289 28.02 19.9249 28.108C19.6209 28.204 19.3089 28.252 18.9889 28.252C16.8289 28.252 15.7489 27.184 15.7489 25.048C15.7489 24.632 15.8249 24.252 15.9769 23.908C16.1289 23.556 16.3249 23.26 16.5649 23.02C16.8049 22.78 17.0929 22.568 17.4289 22.384C17.7649 22.192 18.1009 22.044 18.4369 21.94C18.7809 21.828 19.1409 21.736 19.5169 21.664C19.8929 21.592 20.2289 21.544 20.5249 21.52C20.8209 21.496 21.1049 21.484 21.3769 21.484V21.268C21.3769 20.78 21.2449 20.436 20.9809 20.236C20.7249 20.036 20.3089 19.936 19.7329 19.936C19.2369 19.936 18.7209 19.996 18.1849 20.116C17.6489 20.228 17.2289 20.364 16.9249 20.524L16.1569 18.892C16.7009 18.54 17.4089 18.232 18.2809 17.968C19.1529 17.696 20.0409 17.56 20.9449 17.56C21.7449 17.56 22.4049 17.64 22.9249 17.8C23.4449 17.952 23.8649 18.216 24.1849 18.592C24.5129 18.96 24.7449 19.432 24.8809 20.008C25.0169 20.576 25.0849 21.3 25.0849 22.18V27.064L25.4209 28H22.1329L21.7489 26.932ZM20.8009 26.14C20.9049 26.14 21.0009 26.12 21.0889 26.08C21.1849 26.032 21.2569 25.988 21.3049 25.948C21.3529 25.9 21.3769 25.876 21.3769 25.876V22.996C20.8889 22.996 20.5009 23.132 20.2129 23.404C19.9249 23.668 19.7809 24.08 19.7809 24.64C19.7809 25.64 20.1209 26.14 20.8009 26.14ZM29.4276 28.252C28.3476 28.252 27.5916 27.928 27.1596 27.28C26.7356 26.632 26.5236 25.536 26.5236 23.992V19.912H25.6956V18.244L27.1116 17.8L28.3356 15.004H30.4476V17.8H32.4156V19.912H30.4116V24.376C30.4116 25.016 30.5036 25.44 30.6876 25.648C30.8716 25.856 31.1556 25.96 31.5396 25.96C31.7076 25.96 31.8596 25.94 31.9956 25.9C32.1316 25.86 32.2436 25.804 32.3316 25.732V27.364C32.2116 27.484 32.0556 27.604 31.8636 27.724C31.6716 27.836 31.3516 27.952 30.9036 28.072C30.4636 28.192 29.9716 28.252 29.4276 28.252ZM36.2831 28.252C35.2031 28.252 34.4471 27.928 34.0151 27.28C33.5911 26.632 33.3791 25.536 33.3791 23.992V19.912H32.5511V18.244L33.9671 17.8L35.1911 15.004H37.3031V17.8H39.2711V19.912H37.2671V24.376C37.2671 25.016 37.3591 25.44 37.5431 25.648C37.7271 25.856 38.0111 25.96 38.3951 25.96C38.5631 25.96 38.7151 25.94 38.8511 25.9C38.9871 25.86 39.0991 25.804 39.1871 25.732V27.364C39.0671 27.484 38.9111 27.604 38.7191 27.724C38.5271 27.836 38.2071 27.952 37.7591 28.072C37.3191 28.192 36.8271 28.252 36.2831 28.252ZM45.7185 21.796C45.7185 20.78 45.6665 20.06 45.5625 19.636C45.4585 19.212 45.2665 19 44.9865 19C44.7465 19 44.5505 19.044 44.3985 19.132C44.2465 19.212 44.1345 19.344 44.0625 19.528C43.9905 19.704 43.9425 19.888 43.9185 20.08C43.9025 20.264 43.8945 20.5 43.8945 20.788V21.796H45.7185ZM44.7585 28.252C43.8625 28.252 43.0825 28.116 42.4185 27.844C41.7625 27.572 41.2425 27.192 40.8585 26.704C40.4825 26.216 40.2065 25.668 40.0305 25.06C39.8545 24.444 39.7665 23.76 39.7665 23.008C39.7665 21.216 40.2225 19.86 41.1345 18.94C42.0465 18.02 43.3225 17.56 44.9625 17.56C46.5385 17.56 47.6665 17.932 48.3465 18.676C49.0265 19.412 49.3665 20.6 49.3665 22.24V23.572H43.8825V23.8C43.8825 24.272 43.9305 24.66 44.0265 24.964C44.1305 25.268 44.2785 25.492 44.4705 25.636C44.6625 25.78 44.8585 25.876 45.0585 25.924C45.2585 25.972 45.5025 25.996 45.7905 25.996C46.0705 25.996 46.3705 25.96 46.6905 25.888C47.0185 25.816 47.3465 25.704 47.6745 25.552C48.0105 25.4 48.2905 25.22 48.5145 25.012L49.2225 26.224C48.9265 26.704 48.4905 27.108 47.9145 27.436C47.3465 27.756 46.7985 27.972 46.2705 28.084C45.7425 28.196 45.2385 28.252 44.7585 28.252ZM54.5425 28H50.6665V20.236L49.9465 19.792V18.436L52.5265 17.8H53.4985L53.8465 20.656C54.1745 18.696 55.2265 17.716 57.0025 17.716C57.2025 17.716 57.4105 17.752 57.6265 17.824L57.2185 22.096C57.0505 21.944 56.6825 21.868 56.1145 21.868C55.2985 21.868 54.7745 22.084 54.5425 22.516V28ZM62.4526 28H58.5766V20.236L57.8566 19.792V18.508L60.4366 17.8H62.4766V19.348L62.6206 19.168C62.7166 19.04 62.8566 18.888 63.0406 18.712C63.2326 18.536 63.4446 18.364 63.6766 18.196C63.9086 18.02 64.1846 17.872 64.5046 17.752C64.8326 17.624 65.1526 17.56 65.4646 17.56C66.5606 17.56 67.3326 17.86 67.7806 18.46C68.2366 19.06 68.4646 20.064 68.4646 21.472C68.4646 21.52 68.4646 21.592 68.4646 21.688C68.4566 21.784 68.4526 21.86 68.4526 21.916V28H64.4926V21.568C64.5166 20.816 64.1966 20.44 63.5326 20.44C63.4846 20.44 63.4366 20.444 63.3886 20.452C63.3486 20.46 63.3086 20.468 63.2686 20.476C63.2366 20.484 63.1966 20.5 63.1486 20.524C63.1086 20.54 63.0726 20.556 63.0406 20.572C63.0086 20.58 62.9726 20.6 62.9326 20.632C62.8926 20.656 62.8606 20.676 62.8366 20.692C62.8126 20.708 62.7766 20.736 62.7286 20.776C62.6886 20.808 62.6566 20.832 62.6326 20.848C62.6166 20.864 62.5846 20.892 62.5366 20.932C62.4966 20.964 62.4686 20.988 62.4526 21.004V28ZM73.8072 28H69.8352V13.936H71.4192C71.8432 13.936 72.4832 13.92 73.3392 13.888C74.1952 13.848 74.8992 13.828 75.4512 13.828C77.0032 13.828 78.1793 14.24 78.9792 15.064C79.7792 15.888 80.1792 17.124 80.1792 18.772C80.1792 19.764 80.0472 20.668 79.7832 21.484C79.5272 22.292 79.1792 22.956 78.7393 23.476C78.2992 23.996 77.7992 24.396 77.2393 24.676C76.6792 24.956 76.0872 25.096 75.4632 25.096C75.3833 25.096 75.2993 25.096 75.2113 25.096C75.1313 25.096 75.0553 25.096 74.9832 25.096C74.9192 25.088 74.8392 25.084 74.7433 25.084C74.6553 25.076 74.5832 25.072 74.5272 25.072C74.4792 25.064 74.4072 25.06 74.3112 25.06C74.2232 25.052 74.1632 25.048 74.1312 25.048C74.0992 25.048 74.0392 25.044 73.9513 25.036C73.8633 25.028 73.8152 25.024 73.8072 25.024V28ZM76.2432 18.244C76.2432 17.652 76.0832 17.172 75.7632 16.804C75.4433 16.436 74.9833 16.252 74.3832 16.252H73.8072V22.492H74.2512C74.8832 22.492 75.3712 22.28 75.7152 21.856C76.0672 21.432 76.2432 20.82 76.2432 20.02V18.244ZM86.4013 26.932L86.2813 27.064C86.2012 27.16 86.0772 27.272 85.9092 27.4C85.7492 27.528 85.5612 27.656 85.3452 27.784C85.1372 27.912 84.8812 28.02 84.5773 28.108C84.2733 28.204 83.9613 28.252 83.6413 28.252C81.4813 28.252 80.4013 27.184 80.4013 25.048C80.4013 24.632 80.4772 24.252 80.6292 23.908C80.7812 23.556 80.9772 23.26 81.2173 23.02C81.4572 22.78 81.7452 22.568 82.0813 22.384C82.4172 22.192 82.7532 22.044 83.0893 21.94C83.4332 21.828 83.7932 21.736 84.1692 21.664C84.5452 21.592 84.8812 21.544 85.1772 21.52C85.4732 21.496 85.7572 21.484 86.0293 21.484V21.268C86.0293 20.78 85.8973 20.436 85.6332 20.236C85.3772 20.036 84.9612 19.936 84.3853 19.936C83.8893 19.936 83.3733 19.996 82.8373 20.116C82.3013 20.228 81.8812 20.364 81.5772 20.524L80.8092 18.892C81.3532 18.54 82.0613 18.232 82.9333 17.968C83.8053 17.696 84.6932 17.56 85.5972 17.56C86.3972 17.56 87.0572 17.64 87.5773 17.8C88.0972 17.952 88.5172 18.216 88.8372 18.592C89.1652 18.96 89.3972 19.432 89.5332 20.008C89.6693 20.576 89.7373 21.3 89.7373 22.18V27.064L90.0732 28H86.7853L86.4013 26.932ZM85.4533 26.14C85.5573 26.14 85.6533 26.12 85.7413 26.08C85.8372 26.032 85.9092 25.988 85.9573 25.948C86.0053 25.9 86.0293 25.876 86.0293 25.876V22.996C85.5413 22.996 85.1533 23.132 84.8652 23.404C84.5772 23.668 84.4333 24.08 84.4333 24.64C84.4333 25.64 84.7733 26.14 85.4533 26.14ZM91.1399 28V14.428L90.4199 13.996V12.88L94.2719 12.28H95.0519V28H91.1399ZM96.5188 28V14.428L95.7988 13.996V12.88L99.6508 12.28H100.431V28H96.5188ZM107.418 21.796C107.418 20.78 107.366 20.06 107.262 19.636C107.158 19.212 106.966 19 106.686 19C106.446 19 106.25 19.044 106.098 19.132C105.946 19.212 105.834 19.344 105.762 19.528C105.69 19.704 105.642 19.888 105.618 20.08C105.602 20.264 105.594 20.5 105.594 20.788V21.796H107.418ZM106.458 28.252C105.562 28.252 104.782 28.116 104.118 27.844C103.462 27.572 102.942 27.192 102.558 26.704C102.182 26.216 101.906 25.668 101.73 25.06C101.554 24.444 101.466 23.76 101.466 23.008C101.466 21.216 101.922 19.86 102.834 18.94C103.746 18.02 105.022 17.56 106.662 17.56C108.238 17.56 109.366 17.932 110.046 18.676C110.726 19.412 111.066 20.6 111.066 22.24V23.572H105.582V23.8C105.582 24.272 105.63 24.66 105.726 24.964C105.83 25.268 105.978 25.492 106.17 25.636C106.362 25.78 106.558 25.876 106.758 25.924C106.958 25.972 107.202 25.996 107.49 25.996C107.77 25.996 108.07 25.96 108.39 25.888C108.718 25.816 109.046 25.704 109.374 25.552C109.71 25.4 109.99 25.22 110.214 25.012L110.922 26.224C110.626 26.704 110.19 27.108 109.614 27.436C109.046 27.756 108.498 27.972 107.97 28.084C107.442 28.196 106.938 28.252 106.458 28.252ZM115.174 28.252C114.094 28.252 113.338 27.928 112.906 27.28C112.482 26.632 112.27 25.536 112.27 23.992V19.912H111.442V18.244L112.858 17.8L114.082 15.004H116.194V17.8H118.162V19.912H116.158V24.376C116.158 25.016 116.25 25.44 116.434 25.648C116.618 25.856 116.902 25.96 117.286 25.96C117.454 25.96 117.606 25.94 117.742 25.9C117.878 25.86 117.99 25.804 118.078 25.732V27.364C117.958 27.484 117.802 27.604 117.61 27.724C117.418 27.836 117.098 27.952 116.65 28.072C116.21 28.192 115.718 28.252 115.174 28.252ZM124.609 21.796C124.609 20.78 124.557 20.06 124.453 19.636C124.349 19.212 124.157 19 123.877 19C123.637 19 123.441 19.044 123.289 19.132C123.137 19.212 123.025 19.344 122.953 19.528C122.881 19.704 122.833 19.888 122.809 20.08C122.793 20.264 122.785 20.5 122.785 20.788V21.796H124.609ZM123.649 28.252C122.753 28.252 121.973 28.116 121.309 27.844C120.653 27.572 120.133 27.192 119.749 26.704C119.373 26.216 119.097 25.668 118.921 25.06C118.745 24.444 118.657 23.76 118.657 23.008C118.657 21.216 119.113 19.86 120.025 18.94C120.937 18.02 122.213 17.56 123.853 17.56C125.429 17.56 126.557 17.932 127.237 18.676C127.917 19.412 128.257 20.6 128.257 22.24V23.572H122.773V23.8C122.773 24.272 122.821 24.66 122.917 24.964C123.021 25.268 123.169 25.492 123.361 25.636C123.553 25.78 123.749 25.876 123.949 25.924C124.149 25.972 124.393 25.996 124.681 25.996C124.961 25.996 125.261 25.96 125.581 25.888C125.909 25.816 126.237 25.704 126.565 25.552C126.901 25.4 127.181 25.22 127.405 25.012L128.113 26.224C127.817 26.704 127.381 27.108 126.805 27.436C126.237 27.756 125.689 27.972 125.161 28.084C124.633 28.196 124.129 28.252 123.649 28.252Z" fill="white"/>
</g>
<defs>
<clipPath id="clip0_15_2">
<rect width="133" height="45" rx="4" fill="white"/>
</clipPath>
</defs>
</svg>
