<svg width="128" height="128" viewBox="0 0 128 128" fill="none" xmlns="http://www.w3.org/2000/svg">
<g clip-path="url(#clip0_19_2)">
<rect width="128" height="128" rx="25" fill="#F43F5E"/>
<path d="M47.4998 108H34.9998L34.4998 41.9998L75.9998 41.4998L77.4998 40.4998L77.9998 38.1873V35.4998L76.9998 33.9998L74.9998 32.9998L34.4998 33.4998V19.9998H79.4998C87.1216 23.1631 89.5338 25.8416 90.9998 31.9998C91.9834 37.623 91.6459 40.2818 90.9998 44.9998C87.9908 50.2056 85.4521 52.5126 79.4998 55.4998H47.4998V108Z" fill="white"/>
<path d="M65.9998 108H52.4998V82.4998H75.4998C76.3823 82.0803 76.6914 81.7428 76.9998 80.9998C77.3046 80.4598 77.437 80.1417 77.4998 79.4998V77.4998V75.4998C77.0947 74.5592 76.607 74.2778 75.4998 73.9998H52.4998V60.4998H80.4998C85.6531 63.3186 87.7091 65.188 89.9998 68.9998C92.6893 77.0591 92.2286 80.9667 89.9998 87.4998C87.4618 91.4508 85.4017 93.2165 80.4998 95.4998H65.9998V108Z" fill="white"/>
<path d="M47.4998 108H34.9998L34.4998 41.9998L75.9998 41.4998L77.4998 40.4998L77.9998 38.1873V35.4998L76.9998 33.9998L74.9998 32.9998L34.4998 33.4998V19.9998H79.4998C87.1216 23.1631 89.5338 25.8416 90.9998 31.9998C91.9834 37.623 91.6459 40.2818 90.9998 44.9998C87.9908 50.2056 85.4521 52.5126 79.4998 55.4998H47.4998V108Z" stroke="white"/>
<path d="M65.9998 108H52.4998V82.4998H75.4998C76.3823 82.0803 76.6914 81.7428 76.9998 80.9998C77.3046 80.4598 77.437 80.1417 77.4998 79.4998V77.4998V75.4998C77.0947 74.5592 76.607 74.2778 75.4998 73.9998H52.4998V60.4998H80.4998C85.6531 63.3186 87.7091 65.188 89.9998 68.9998C92.6893 77.0591 92.2286 80.9667 89.9998 87.4998C87.4618 91.4508 85.4017 93.2165 80.4998 95.4998H65.9998V108Z" stroke="white"/>
</g>
<defs>
<clipPath id="clip0_19_2">
<rect width="128" height="128" rx="25" fill="white"/>
</clipPath>
</defs>
</svg>
